<?xml version="1.0" encoding="UTF-8" standalone="no"?>
<!DOCTYPE svg PUBLIC "-//W3C//DTD SVG 1.1//EN"
 "http://www.w3.org/Graphics/SVG/1.1/DTD/svg11.dtd">
<!-- Generated by graphviz version 2.40.1 (20161225.0304)
 -->
<!-- Title: G Pages: 1 -->
<svg width="772pt" height="638pt"
 viewBox="0.00 0.00 772.00 638.00" xmlns="http://www.w3.org/2000/svg" xmlns:xlink="http://www.w3.org/1999/xlink">
<g id="graph0" class="graph" transform="scale(1 1) rotate(0) translate(4 634)">
<title>G</title>
<polygon fill="#ffffff" stroke="transparent" points="-4,4 -4,-634 768,-634 768,4 -4,4"/>
<g id="clust1" class="cluster">
<title>cluster_root</title>
<g id="a_clust1"><a xlink:title="eventq_index=0&#10;full_system=false&#10;sim_quantum=0&#10;time_sync_enable=false&#10;time_sync_period=100000000000&#10;time_sync_spin_threshold=100000000">
<path fill="#bab6ae" stroke="#000000" d="M20,-8C20,-8 744,-8 744,-8 750,-8 756,-14 756,-20 756,-20 756,-610 756,-610 756,-616 750,-622 744,-622 744,-622 20,-622 20,-622 14,-622 8,-616 8,-610 8,-610 8,-20 8,-20 8,-14 14,-8 20,-8"/>
<text text-anchor="middle" x="382" y="-606.8" font-family="Arial" font-size="14.00" fill="#000000">root </text>
<text text-anchor="middle" x="382" y="-591.8" font-family="Arial" font-size="14.00" fill="#000000">: Root</text>
</a>
</g>
</g>
<g id="clust2" class="cluster">
<title>cluster_system</title>
<g id="a_clust2"><a xlink:title="boot_osflags=a&#10;cache_line_size=64&#10;eventq_index=0&#10;exit_on_work_items=false&#10;init_param=0&#10;kernel=&#10;kernel_addr_check=true&#10;kernel_extras=&#10;&#10;oad_addr_mask=18446744073709551615&#10;&#10;oad_offset=0&#10;mem_mode=timing&#10;mem_ranges=0:536870911&#10;memories=system.mem_ctrls&#10;mmap_using_noreserve=false&#10;multi_thread=false&#10;&#10;um_work_ids=16&#10;&#13;eadfile=&#10;&#13;edirect_paths=system.redirect_paths0 system.redirect_paths1 system.redirect_paths2 system.redirect_paths3&#10;symbolfile=&#10;thermal_components=&#10;thermal_model=Null&#10;work_begin_ckpt_count=0&#10;work_begin_cpu_id_exit=&#45;1&#10;work_begin_exit_count=0&#10;work_cpus_ckpt_count=0&#10;work_end_ckpt_count=0&#10;work_end_exit_count=0&#10;work_item_id=&#45;1">
<path fill="#e4e7eb" stroke="#000000" d="M28,-16C28,-16 736,-16 736,-16 742,-16 748,-22 748,-28 748,-28 748,-564 748,-564 748,-570 742,-576 736,-576 736,-576 28,-576 28,-576 22,-576 16,-570 16,-564 16,-564 16,-28 16,-28 16,-22 22,-16 28,-16"/>
<text text-anchor="middle" x="382" y="-560.8" font-family="Arial" font-size="14.00" fill="#000000">system </text>
<text text-anchor="middle" x="382" y="-545.8" font-family="Arial" font-size="14.00" fill="#000000">: System</text>
</a>
</g>
</g>
<g id="clust3" class="cluster">
<title>cluster_system_membus</title>
<g id="a_clust3"><a xlink:title="clk_domain=system.clk_domain&#10;default_p_state=UNDEFINED&#10;eventq_index=0&#10;forward_latency=4&#10;frontend_latency=3&#10;max_outstanding_snoops=512&#10;max_routing_table_size=512&#10;p_state_clk_gate_bins=20&#10;p_state_clk_gate_max=1000000000000&#10;p_state_clk_gate_min=1000&#10;point_of_coherency=true&#10;point_of_unification=true&#10;power_model=&#10;&#13;esponse_latency=2&#10;snoop_filter=system.membus.snoop_filter&#10;snoop_response_latency=4&#10;system=system&#10;use_default_range=false&#10;width=16">
<path fill="#6f798c" stroke="#000000" d="M401,-354C401,-354 527,-354 527,-354 533,-354 539,-360 539,-366 539,-366 539,-433 539,-433 539,-439 533,-445 527,-445 527,-445 401,-445 401,-445 395,-445 389,-439 389,-433 389,-433 389,-366 389,-366 389,-360 395,-354 401,-354"/>
<text text-anchor="middle" x="464" y="-429.8" font-family="Arial" font-size="14.00" fill="#000000">membus </text>
<text text-anchor="middle" x="464" y="-414.8" font-family="Arial" font-size="14.00" fill="#000000">: SystemXBar</text>
</a>
</g>
</g>
<g id="clust12" class="cluster">
<title>cluster_system_mem_ctrls</title>
<g id="a_clust12"><a xlink:title="IDD0=0.008&#10;IDD02=0.06&#10;IDD2N=0.0008&#10;IDD2N2=0.026&#10;IDD2P0=0.0&#10;IDD2P02=0.0&#10;IDD2P1=0.0008&#10;IDD2P12=0.0018&#10;IDD3N=0.002&#10;IDD3N2=0.034&#10;IDD3P0=0.0&#10;IDD3P02=0.0&#10;IDD3P1=0.0014&#10;IDD3P12=0.011&#10;IDD4R=0.002&#10;IDD4R2=0.23&#10;IDD4W=0.002&#10;IDD4W2=0.19&#10;IDD5=0.028&#10;IDD52=0.15&#10;IDD6=0.0005&#10;IDD62=0.0018&#10;VDD=1.8&#10;VDD2=1.2&#10;activation_limit=4&#10;addr_mapping=RoRaBaCoCh&#10;bank_groups_per_rank=0&#10;banks_per_rank=8&#10;burst_length=8&#10;clk_domain=system.clk_domain&#10;conf_table_reported=true&#10;default_p_state=UNDEFINED&#10;device_bus_width=32&#10;device_rowbuffer_size=4096&#10;device_size=536870912&#10;devices_per_rank=1&#10;dll=false&#10;enable_dram_powerdown=false&#10;eventq_index=0&#10;in_addr_map=true&#10;kvm_map=true&#10;max_accesses_per_row=16&#10;mem_sched_policy=frfcfs&#10;min_writes_per_switch=16&#10;&#10;ull=false&#10;p_state_clk_gate_bins=20&#10;p_state_clk_gate_max=1000000000000&#10;p_state_clk_gate_min=1000&#10;page_policy=open_adaptive&#10;power_model=&#10;qos_masters= &#160;&#160;&#160;&#160;&#160;&#160;&#160;&#160;&#160;&#160;&#160;&#160;&#160;&#160;&#10;qos_policy=Null&#10;qos_priorities=1&#10;qos_priority_escalation=false&#10;qos_q_policy=fifo&#10;qos_syncro_scheduler=false&#10;qos_turnaround_policy=Null&#10;&#13;ange=0:536870911&#10;&#13;anks_per_channel=1&#10;&#13;ead_buffer_size=32&#10;static_backend_latency=10000&#10;static_frontend_latency=10000&#10;tBURST=5000&#10;tCCD_L=0&#10;tCCD_L_WR=0&#10;tCK=1250&#10;tCL=15000&#10;tCS=2500&#10;tRAS=42000&#10;tRCD=18000&#10;tREFI=3900000&#10;tRFC=130000&#10;tRP=18000&#10;tRRD=10000&#10;tRRD_L=0&#10;tRTP=7500&#10;tRTW=2500&#10;tWR=15000&#10;tWTR=7500&#10;tXAW=50000&#10;tXP=7500&#10;tXPDLL=0&#10;tXS=140000&#10;tXSDLL=0&#10;write_buffer_size=64&#10;write_high_thresh_perc=85&#10;write_low_thresh_perc=50">
<path fill="#5e5958" stroke="#000000" d="M36,-163C36,-163 176,-163 176,-163 182,-163 188,-169 188,-175 188,-175 188,-242 188,-242 188,-248 182,-254 176,-254 176,-254 36,-254 36,-254 30,-254 24,-248 24,-242 24,-242 24,-175 24,-175 24,-169 30,-163 36,-163"/>
<text text-anchor="middle" x="106" y="-238.8" font-family="Arial" font-size="14.00" fill="#000000">mem_ctrls </text>
<text text-anchor="middle" x="106" y="-223.8" font-family="Arial" font-size="14.00" fill="#000000">: LPDDR3_1600_1x32</text>
</a>
</g>
</g>
<g id="clust15" class="cluster">
<title>cluster_system_cpu</title>
<g id="a_clust15"><a xlink:title="branchPred=Null&#10;checker=Null&#10;clk_domain=system.cpu_clk_domain&#10;cpu_id=0&#10;default_p_state=UNDEFINED&#10;do_checkpoint_insts=true&#10;do_quiesce=true&#10;do_statistics_insts=true&#10;dtb=system.cpu.dtb&#10;eventq_index=0&#10;function_trace=false&#10;function_trace_start=0&#10;interrupts=system.cpu.interrupts&#10;isa=system.cpu.isa&#10;itb=system.cpu.itb&#10;max_insts_all_threads=0&#10;max_insts_any_thread=0&#10;&#10;umThreads=1&#10;p_state_clk_gate_bins=20&#10;p_state_clk_gate_max=1000000000000&#10;p_state_clk_gate_min=1000&#10;power_gating_on_idle=false&#10;power_model=&#10;profile=0&#10;progress_interval=0&#10;pwr_gating_latency=300&#10;simpoint_start_insts=&#10;socket_id=0&#10;switched_out=false&#10;syscallRetryLatency=10000&#10;system=system&#10;tracer=system.cpu.tracer&#10;wait_for_remote_gdb=false&#10;workload=system.cpu.workload">
<path fill="#bbc6d9" stroke="#000000" d="M220,-24C220,-24 726,-24 726,-24 732,-24 738,-30 738,-36 738,-36 738,-334 738,-334 738,-340 732,-346 726,-346 726,-346 220,-346 220,-346 214,-346 208,-340 208,-334 208,-334 208,-36 208,-36 208,-30 214,-24 220,-24"/>
<text text-anchor="middle" x="473" y="-330.8" font-family="Arial" font-size="14.00" fill="#000000">cpu </text>
<text text-anchor="middle" x="473" y="-315.8" font-family="Arial" font-size="14.00" fill="#000000">: TimingSimpleCPU</text>
</a>
</g>
</g>
<g id="clust16" class="cluster">
<title>cluster_system_cpu_icache</title>
<g id="a_clust16"><a xlink:title="addr_ranges=0:18446744073709551615&#10;assoc=2&#10;clk_domain=system.cpu_clk_domain&#10;clusivity=mostly_incl&#10;compressor=Null&#10;data_latency=2&#10;default_p_state=UNDEFINED&#10;demand_mshr_reserve=1&#10;eventq_index=0&#10;is_read_only=true&#10;max_miss_count=0&#10;mshrs=4&#10;p_state_clk_gate_bins=20&#10;p_state_clk_gate_max=1000000000000&#10;p_state_clk_gate_min=1000&#10;power_model=&#10;prefetch_on_access=false&#10;prefetcher=Null&#10;&#13;eplacement_policy=system.cpu.icache.replacement_policy&#10;&#13;esponse_latency=2&#10;sequential_access=false&#10;size=32768&#10;system=system&#10;tag_latency=2&#10;tags=system.cpu.icache.tags&#10;tgts_per_mshr=20&#10;warmup_percentage=0&#10;write_allocator=Null&#10;write_buffers=8&#10;writeback_clean=true">
<path fill="#bab6ae" stroke="#000000" d="M228,-32C228,-32 398,-32 398,-32 404,-32 410,-38 410,-44 410,-44 410,-111 410,-111 410,-117 404,-123 398,-123 398,-123 228,-123 228,-123 222,-123 216,-117 216,-111 216,-111 216,-44 216,-44 216,-38 222,-32 228,-32"/>
<text text-anchor="middle" x="313" y="-107.8" font-family="Arial" font-size="14.00" fill="#000000">icache </text>
<text text-anchor="middle" x="313" y="-92.8" font-family="Arial" font-size="14.00" fill="#000000">: L1_ICache</text>
</a>
</g>
</g>
<g id="clust20" class="cluster">
<title>cluster_system_cpu_dtb</title>
<g id="a_clust20"><a xlink:title="eventq_index=0&#10;is_stage2=false&#10;size=64&#10;sys=system&#10;walker=system.cpu.dtb.walker">
<path fill="#bab6ae" stroke="#000000" d="M597,-155C597,-155 718,-155 718,-155 724,-155 730,-161 730,-167 730,-167 730,-288 730,-288 730,-294 724,-300 718,-300 718,-300 597,-300 597,-300 591,-300 585,-294 585,-288 585,-288 585,-167 585,-167 585,-161 591,-155 597,-155"/>
<text text-anchor="middle" x="657.5" y="-284.8" font-family="Arial" font-size="14.00" fill="#000000">dtb </text>
<text text-anchor="middle" x="657.5" y="-269.8" font-family="Arial" font-size="14.00" fill="#000000">: ArmDTB</text>
</a>
</g>
</g>
<g id="clust21" class="cluster">
<title>cluster_system_cpu_dtb_walker</title>
<g id="a_clust21"><a xlink:title="clk_domain=system.cpu_clk_domain&#10;default_p_state=UNDEFINED&#10;eventq_index=0&#10;is_stage2=false&#10;&#10;um_squash_per_cycle=2&#10;p_state_clk_gate_bins=20&#10;p_state_clk_gate_max=1000000000000&#10;p_state_clk_gate_min=1000&#10;power_model=&#10;sys=system">
<path fill="#9f9c95" stroke="#000000" d="M605,-163C605,-163 710,-163 710,-163 716,-163 722,-169 722,-175 722,-175 722,-242 722,-242 722,-248 716,-254 710,-254 710,-254 605,-254 605,-254 599,-254 593,-248 593,-242 593,-242 593,-175 593,-175 593,-169 599,-163 605,-163"/>
<text text-anchor="middle" x="657.5" y="-238.8" font-family="Arial" font-size="14.00" fill="#000000">walker </text>
<text text-anchor="middle" x="657.5" y="-223.8" font-family="Arial" font-size="14.00" fill="#000000">: ArmTableWalker</text>
</a>
</g>
</g>
<g id="clust26" class="cluster">
<title>cluster_system_cpu_itb</title>
<g id="a_clust26"><a xlink:title="eventq_index=0&#10;is_stage2=false&#10;size=64&#10;sys=system&#10;walker=system.cpu.itb.walker">
<path fill="#bab6ae" stroke="#000000" d="M444,-155C444,-155 565,-155 565,-155 571,-155 577,-161 577,-167 577,-167 577,-288 577,-288 577,-294 571,-300 565,-300 565,-300 444,-300 444,-300 438,-300 432,-294 432,-288 432,-288 432,-167 432,-167 432,-161 438,-155 444,-155"/>
<text text-anchor="middle" x="504.5" y="-284.8" font-family="Arial" font-size="14.00" fill="#000000">itb </text>
<text text-anchor="middle" x="504.5" y="-269.8" font-family="Arial" font-size="14.00" fill="#000000">: ArmITB</text>
</a>
</g>
</g>
<g id="clust27" class="cluster">
<title>cluster_system_cpu_itb_walker</title>
<g id="a_clust27"><a xlink:title="clk_domain=system.cpu_clk_domain&#10;default_p_state=UNDEFINED&#10;eventq_index=0&#10;is_stage2=false&#10;&#10;um_squash_per_cycle=2&#10;p_state_clk_gate_bins=20&#10;p_state_clk_gate_max=1000000000000&#10;p_state_clk_gate_min=1000&#10;power_model=&#10;sys=system">
<path fill="#9f9c95" stroke="#000000" d="M452,-163C452,-163 557,-163 557,-163 563,-163 569,-169 569,-175 569,-175 569,-242 569,-242 569,-248 563,-254 557,-254 557,-254 452,-254 452,-254 446,-254 440,-248 440,-242 440,-242 440,-175 440,-175 440,-169 446,-163 452,-163"/>
<text text-anchor="middle" x="504.5" y="-238.8" font-family="Arial" font-size="14.00" fill="#000000">walker </text>
<text text-anchor="middle" x="504.5" y="-223.8" font-family="Arial" font-size="14.00" fill="#000000">: ArmTableWalker</text>
</a>
</g>
</g>
<g id="clust32" class="cluster">
<title>cluster_system_cpu_dcache</title>
<g id="a_clust32"><a xlink:title="addr_ranges=0:18446744073709551615&#10;assoc=2&#10;clk_domain=system.cpu_clk_domain&#10;clusivity=mostly_incl&#10;compressor=Null&#10;data_latency=2&#10;default_p_state=UNDEFINED&#10;demand_mshr_reserve=1&#10;eventq_index=0&#10;is_read_only=false&#10;max_miss_count=0&#10;mshrs=4&#10;p_state_clk_gate_bins=20&#10;p_state_clk_gate_max=1000000000000&#10;p_state_clk_gate_min=1000&#10;power_model=&#10;prefetch_on_access=false&#10;prefetcher=Null&#10;&#13;eplacement_policy=system.cpu.dcache.replacement_policy&#10;&#13;esponse_latency=2&#10;sequential_access=false&#10;size=65536&#10;system=system&#10;tag_latency=2&#10;tags=system.cpu.dcache.tags&#10;tgts_per_mshr=20&#10;warmup_percentage=0&#10;write_allocator=Null&#10;write_buffers=8&#10;writeback_clean=false">
<path fill="#bab6ae" stroke="#000000" d="M489,-32C489,-32 659,-32 659,-32 665,-32 671,-38 671,-44 671,-44 671,-111 671,-111 671,-117 665,-123 659,-123 659,-123 489,-123 489,-123 483,-123 477,-117 477,-111 477,-111 477,-44 477,-44 477,-38 483,-32 489,-32"/>
<text text-anchor="middle" x="574" y="-107.8" font-family="Arial" font-size="14.00" fill="#000000">dcache </text>
<text text-anchor="middle" x="574" y="-92.8" font-family="Arial" font-size="14.00" fill="#000000">: L1_DCache</text>
</a>
</g>
</g>
<!-- system_system_port -->
<g id="node1" class="node">
<title>system_system_port</title>
<path fill="#b6b8bc" stroke="#000000" d="M468,-493.5C468,-493.5 540,-493.5 540,-493.5 546,-493.5 552,-499.5 552,-505.5 552,-505.5 552,-517.5 552,-517.5 552,-523.5 546,-529.5 540,-529.5 540,-529.5 468,-529.5 468,-529.5 462,-529.5 456,-523.5 456,-517.5 456,-517.5 456,-505.5 456,-505.5 456,-499.5 462,-493.5 468,-493.5"/>
<text text-anchor="middle" x="504" y="-507.8" font-family="Arial" font-size="14.00" fill="#000000">system_port</text>
</g>
<!-- system_membus_slave -->
<g id="node3" class="node">
<title>system_membus_slave</title>
<path fill="#586070" stroke="#000000" d="M489,-362.5C489,-362.5 519,-362.5 519,-362.5 525,-362.5 531,-368.5 531,-374.5 531,-374.5 531,-386.5 531,-386.5 531,-392.5 525,-398.5 519,-398.5 519,-398.5 489,-398.5 489,-398.5 483,-398.5 477,-392.5 477,-386.5 477,-386.5 477,-374.5 477,-374.5 477,-368.5 483,-362.5 489,-362.5"/>
<text text-anchor="middle" x="504" y="-376.8" font-family="Arial" font-size="14.00" fill="#000000">slave</text>
</g>
<!-- system_system_port&#45;&gt;system_membus_slave -->
<g id="edge1" class="edge">
<title>system_system_port&#45;&gt;system_membus_slave</title>
<path fill="none" stroke="#000000" d="M504,-493.285C504,-471.3856 504,-434.3861 504,-408.7663"/>
<polygon fill="#000000" stroke="#000000" points="507.5001,-408.5603 504,-398.5603 500.5001,-408.5603 507.5001,-408.5603"/>
</g>
<!-- system_membus_master -->
<g id="node2" class="node">
<title>system_membus_master</title>
<path fill="#586070" stroke="#000000" d="M409.5,-362.5C409.5,-362.5 446.5,-362.5 446.5,-362.5 452.5,-362.5 458.5,-368.5 458.5,-374.5 458.5,-374.5 458.5,-386.5 458.5,-386.5 458.5,-392.5 452.5,-398.5 446.5,-398.5 446.5,-398.5 409.5,-398.5 409.5,-398.5 403.5,-398.5 397.5,-392.5 397.5,-386.5 397.5,-386.5 397.5,-374.5 397.5,-374.5 397.5,-368.5 403.5,-362.5 409.5,-362.5"/>
<text text-anchor="middle" x="428" y="-376.8" font-family="Arial" font-size="14.00" fill="#000000">master</text>
</g>
<!-- system_mem_ctrls_port -->
<g id="node4" class="node">
<title>system_mem_ctrls_port</title>
<path fill="#4b4746" stroke="#000000" d="M136,-171.5C136,-171.5 166,-171.5 166,-171.5 172,-171.5 178,-177.5 178,-183.5 178,-183.5 178,-195.5 178,-195.5 178,-201.5 172,-207.5 166,-207.5 166,-207.5 136,-207.5 136,-207.5 130,-207.5 124,-201.5 124,-195.5 124,-195.5 124,-183.5 124,-183.5 124,-177.5 130,-171.5 136,-171.5"/>
<text text-anchor="middle" x="151" y="-185.8" font-family="Arial" font-size="14.00" fill="#000000">port</text>
</g>
<!-- system_membus_master&#45;&gt;system_mem_ctrls_port -->
<g id="edge2" class="edge">
<title>system_membus_master&#45;&gt;system_mem_ctrls_port</title>
<path fill="none" stroke="#000000" d="M397.2147,-377.8911C336.7629,-372.4983 207.0827,-359.4941 192,-346 155.7675,-313.5837 149.7879,-253.4558 149.7149,-217.9106"/>
<polygon fill="#000000" stroke="#000000" points="153.217,-217.7736 149.8549,-207.7264 146.2177,-217.6773 153.217,-217.7736"/>
</g>
<!-- system_cpu_icache_mem_side -->
<g id="node7" class="node">
<title>system_cpu_icache_mem_side</title>
<path fill="#94918b" stroke="#000000" d="M236,-40.5C236,-40.5 296,-40.5 296,-40.5 302,-40.5 308,-46.5 308,-52.5 308,-52.5 308,-64.5 308,-64.5 308,-70.5 302,-76.5 296,-76.5 296,-76.5 236,-76.5 236,-76.5 230,-76.5 224,-70.5 224,-64.5 224,-64.5 224,-52.5 224,-52.5 224,-46.5 230,-40.5 236,-40.5"/>
<text text-anchor="middle" x="266" y="-54.8" font-family="Arial" font-size="14.00" fill="#000000">mem_side</text>
</g>
<!-- system_membus_slave&#45;&gt;system_cpu_icache_mem_side -->
<g id="edge3" class="edge">
<title>system_membus_slave&#45;&gt;system_cpu_icache_mem_side</title>
<path fill="none" stroke="#000000" d="M475.2043,-357.1376C472.852,-355.9125 470.4392,-354.8421 468,-354 454.1299,-349.2116 214.2173,-356.5316 204,-346 189.2226,-330.7681 198.0223,-175.3629 204,-155 212.8623,-124.8109 234.4023,-95.1276 249.5951,-76.8255"/>
<polygon fill="#000000" stroke="#000000" points="473.5496,-360.2287 483.9036,-362.4747 477.2102,-354.262 473.5496,-360.2287"/>
</g>
<!-- system_cpu_dtb_walker_port -->
<g id="node9" class="node">
<title>system_cpu_dtb_walker_port</title>
<path fill="#7f7c77" stroke="#000000" d="M613,-171.5C613,-171.5 643,-171.5 643,-171.5 649,-171.5 655,-177.5 655,-183.5 655,-183.5 655,-195.5 655,-195.5 655,-201.5 649,-207.5 643,-207.5 643,-207.5 613,-207.5 613,-207.5 607,-207.5 601,-201.5 601,-195.5 601,-195.5 601,-183.5 601,-183.5 601,-177.5 607,-171.5 613,-171.5"/>
<text text-anchor="middle" x="628" y="-185.8" font-family="Arial" font-size="14.00" fill="#000000">port</text>
</g>
<!-- system_membus_slave&#45;&gt;system_cpu_dtb_walker_port -->
<g id="edge6" class="edge">
<title>system_membus_slave&#45;&gt;system_cpu_dtb_walker_port</title>
<path fill="none" stroke="#000000" d="M540.2616,-368.6508C552.0173,-363.3039 564.2642,-355.9091 573,-346 608.9949,-305.1706 621.8193,-239.3266 626.0666,-207.6581"/>
<polygon fill="#000000" stroke="#000000" points="538.8966,-365.4279 531.0156,-372.5089 541.5922,-371.8881 538.8966,-365.4279"/>
</g>
<!-- system_cpu_itb_walker_port -->
<g id="node10" class="node">
<title>system_cpu_itb_walker_port</title>
<path fill="#7f7c77" stroke="#000000" d="M489,-171.5C489,-171.5 519,-171.5 519,-171.5 525,-171.5 531,-177.5 531,-183.5 531,-183.5 531,-195.5 531,-195.5 531,-201.5 525,-207.5 519,-207.5 519,-207.5 489,-207.5 489,-207.5 483,-207.5 477,-201.5 477,-195.5 477,-195.5 477,-183.5 477,-183.5 477,-177.5 483,-171.5 489,-171.5"/>
<text text-anchor="middle" x="504" y="-185.8" font-family="Arial" font-size="14.00" fill="#000000">port</text>
</g>
<!-- system_membus_slave&#45;&gt;system_cpu_itb_walker_port -->
<g id="edge5" class="edge">
<title>system_membus_slave&#45;&gt;system_cpu_itb_walker_port</title>
<path fill="none" stroke="#000000" d="M504,-352.09C504,-312.3133 504,-241.1585 504,-207.7584"/>
<polygon fill="#000000" stroke="#000000" points="500.5001,-352.1861 504,-362.1861 507.5001,-352.1862 500.5001,-352.1861"/>
</g>
<!-- system_cpu_dcache_mem_side -->
<g id="node11" class="node">
<title>system_cpu_dcache_mem_side</title>
<path fill="#94918b" stroke="#000000" d="M591,-40.5C591,-40.5 651,-40.5 651,-40.5 657,-40.5 663,-46.5 663,-52.5 663,-52.5 663,-64.5 663,-64.5 663,-70.5 657,-76.5 651,-76.5 651,-76.5 591,-76.5 591,-76.5 585,-76.5 579,-70.5 579,-64.5 579,-64.5 579,-52.5 579,-52.5 579,-46.5 585,-40.5 591,-40.5"/>
<text text-anchor="middle" x="621" y="-54.8" font-family="Arial" font-size="14.00" fill="#000000">mem_side</text>
</g>
<!-- system_membus_slave&#45;&gt;system_cpu_dcache_mem_side -->
<g id="edge4" class="edge">
<title>system_membus_slave&#45;&gt;system_cpu_dcache_mem_side</title>
<path fill="none" stroke="#000000" d="M541.311,-377.3313C601.4091,-371.8462 714.1511,-359.8325 726,-346 781.2247,-281.5302 760.1314,-232.725 726,-155 710.9684,-120.7697 677.1383,-93.3466 651.9157,-76.6096"/>
<polygon fill="#000000" stroke="#000000" points="540.736,-373.8687 531.0884,-378.2477 541.361,-380.8408 540.736,-373.8687"/>
</g>
<!-- system_cpu_icache_port -->
<g id="node5" class="node">
<title>system_cpu_icache_port</title>
<path fill="#959ead" stroke="#000000" d="M228,-171.5C228,-171.5 296,-171.5 296,-171.5 302,-171.5 308,-177.5 308,-183.5 308,-183.5 308,-195.5 308,-195.5 308,-201.5 302,-207.5 296,-207.5 296,-207.5 228,-207.5 228,-207.5 222,-207.5 216,-201.5 216,-195.5 216,-195.5 216,-183.5 216,-183.5 216,-177.5 222,-171.5 228,-171.5"/>
<text text-anchor="middle" x="262" y="-185.8" font-family="Arial" font-size="14.00" fill="#000000">icache_port</text>
</g>
<!-- system_cpu_icache_cpu_side -->
<g id="node8" class="node">
<title>system_cpu_icache_cpu_side</title>
<path fill="#94918b" stroke="#000000" d="M338,-40.5C338,-40.5 390,-40.5 390,-40.5 396,-40.5 402,-46.5 402,-52.5 402,-52.5 402,-64.5 402,-64.5 402,-70.5 396,-76.5 390,-76.5 390,-76.5 338,-76.5 338,-76.5 332,-76.5 326,-70.5 326,-64.5 326,-64.5 326,-52.5 326,-52.5 326,-46.5 332,-40.5 338,-40.5"/>
<text text-anchor="middle" x="364" y="-54.8" font-family="Arial" font-size="14.00" fill="#000000">cpu_side</text>
</g>
<!-- system_cpu_icache_port&#45;&gt;system_cpu_icache_cpu_side -->
<g id="edge7" class="edge">
<title>system_cpu_icache_port&#45;&gt;system_cpu_icache_cpu_side</title>
<path fill="none" stroke="#000000" d="M277.4801,-171.3982C288.673,-158.1627 304.0417,-139.6837 317,-123 326.6432,-110.5845 336.9708,-96.5044 345.482,-84.674"/>
<polygon fill="#000000" stroke="#000000" points="348.3488,-86.6821 351.3226,-76.5132 342.6564,-82.6081 348.3488,-86.6821"/>
</g>
<!-- system_cpu_dcache_port -->
<g id="node6" class="node">
<title>system_cpu_dcache_port</title>
<path fill="#959ead" stroke="#000000" d="M338,-171.5C338,-171.5 412,-171.5 412,-171.5 418,-171.5 424,-177.5 424,-183.5 424,-183.5 424,-195.5 424,-195.5 424,-201.5 418,-207.5 412,-207.5 412,-207.5 338,-207.5 338,-207.5 332,-207.5 326,-201.5 326,-195.5 326,-195.5 326,-183.5 326,-183.5 326,-177.5 332,-171.5 338,-171.5"/>
<text text-anchor="middle" x="375" y="-185.8" font-family="Arial" font-size="14.00" fill="#000000">dcache_port</text>
</g>
<!-- system_cpu_dcache_cpu_side -->
<g id="node12" class="node">
<title>system_cpu_dcache_cpu_side</title>
<path fill="#94918b" stroke="#000000" d="M497,-40.5C497,-40.5 549,-40.5 549,-40.5 555,-40.5 561,-46.5 561,-52.5 561,-52.5 561,-64.5 561,-64.5 561,-70.5 555,-76.5 549,-76.5 549,-76.5 497,-76.5 497,-76.5 491,-76.5 485,-70.5 485,-64.5 485,-64.5 485,-52.5 485,-52.5 485,-46.5 491,-40.5 497,-40.5"/>
<text text-anchor="middle" x="523" y="-54.8" font-family="Arial" font-size="14.00" fill="#000000">cpu_side</text>
</g>
<!-- system_cpu_dcache_port&#45;&gt;system_cpu_dcache_cpu_side -->
<g id="edge8" class="edge">
<title>system_cpu_dcache_port&#45;&gt;system_cpu_dcache_cpu_side</title>
<path fill="none" stroke="#000000" d="M395.5788,-171.285C421.4246,-148.4079 465.8873,-109.0525 494.8625,-83.4055"/>
<polygon fill="#000000" stroke="#000000" points="497.4277,-85.8091 502.596,-76.5603 492.7882,-80.5674 497.4277,-85.8091"/>
</g>
</g>
</svg>
