<?xml version="1.0" encoding="UTF-8" standalone="no"?>
<!DOCTYPE svg PUBLIC "-//W3C//DTD SVG 1.1//EN"
 "http://www.w3.org/Graphics/SVG/1.1/DTD/svg11.dtd">
<!-- Generated by graphviz version 2.40.1 (20161225.0304)
 -->
<!-- Title: G Pages: 1 -->
<svg width="780pt" height="638pt"
 viewBox="0.00 0.00 780.00 638.00" xmlns="http://www.w3.org/2000/svg" xmlns:xlink="http://www.w3.org/1999/xlink">
<g id="graph0" class="graph" transform="scale(1 1) rotate(0) translate(4 634)">
<title>G</title>
<polygon fill="#ffffff" stroke="transparent" points="-4,4 -4,-634 776,-634 776,4 -4,4"/>
<g id="clust1" class="cluster">
<title>cluster_root</title>
<g id="a_clust1"><a xlink:title="eventq_index=0&#10;full_system=false&#10;sim_quantum=0&#10;time_sync_enable=false&#10;time_sync_period=100000000000&#10;time_sync_spin_threshold=100000000">
<path fill="#bab6ae" stroke="#000000" d="M20,-8C20,-8 752,-8 752,-8 758,-8 764,-14 764,-20 764,-20 764,-610 764,-610 764,-616 758,-622 752,-622 752,-622 20,-622 20,-622 14,-622 8,-616 8,-610 8,-610 8,-20 8,-20 8,-14 14,-8 20,-8"/>
<text text-anchor="middle" x="386" y="-606.8" font-family="Arial" font-size="14.00" fill="#000000">root </text>
<text text-anchor="middle" x="386" y="-591.8" font-family="Arial" font-size="14.00" fill="#000000">: Root</text>
</a>
</g>
</g>
<g id="clust2" class="cluster">
<title>cluster_system</title>
<g id="a_clust2"><a xlink:title="boot_osflags=a&#10;cache_line_size=64&#10;eventq_index=0&#10;exit_on_work_items=false&#10;init_param=0&#10;kernel=&#10;kernel_addr_check=true&#10;kernel_extras=&#10;&#10;oad_addr_mask=18446744073709551615&#10;&#10;oad_offset=0&#10;mem_mode=timing&#10;mem_ranges=0:536870911&#10;memories=system.mem_ctrls&#10;mmap_using_noreserve=false&#10;multi_thread=false&#10;&#10;um_work_ids=16&#10;&#13;eadfile=&#10;&#13;edirect_paths=system.redirect_paths0 system.redirect_paths1 system.redirect_paths2 system.redirect_paths3&#10;symbolfile=&#10;thermal_components=&#10;thermal_model=Null&#10;work_begin_ckpt_count=0&#10;work_begin_cpu_id_exit=&#45;1&#10;work_begin_exit_count=0&#10;work_cpus_ckpt_count=0&#10;work_end_ckpt_count=0&#10;work_end_exit_count=0&#10;work_item_id=&#45;1">
<path fill="#e4e7eb" stroke="#000000" d="M28,-16C28,-16 744,-16 744,-16 750,-16 756,-22 756,-28 756,-28 756,-564 756,-564 756,-570 750,-576 744,-576 744,-576 28,-576 28,-576 22,-576 16,-570 16,-564 16,-564 16,-28 16,-28 16,-22 22,-16 28,-16"/>
<text text-anchor="middle" x="386" y="-560.8" font-family="Arial" font-size="14.00" fill="#000000">system </text>
<text text-anchor="middle" x="386" y="-545.8" font-family="Arial" font-size="14.00" fill="#000000">: System</text>
</a>
</g>
</g>
<g id="clust3" class="cluster">
<title>cluster_system_membus</title>
<g id="a_clust3"><a xlink:title="clk_domain=system.clk_domain&#10;default_p_state=UNDEFINED&#10;eventq_index=0&#10;forward_latency=4&#10;frontend_latency=3&#10;max_outstanding_snoops=512&#10;max_routing_table_size=512&#10;p_state_clk_gate_bins=20&#10;p_state_clk_gate_max=1000000000000&#10;p_state_clk_gate_min=1000&#10;point_of_coherency=true&#10;point_of_unification=true&#10;power_model=&#10;&#13;esponse_latency=2&#10;snoop_filter=system.membus.snoop_filter&#10;snoop_response_latency=4&#10;system=system&#10;use_default_range=false&#10;width=16">
<path fill="#6f798c" stroke="#000000" d="M542,-354C542,-354 668,-354 668,-354 674,-354 680,-360 680,-366 680,-366 680,-433 680,-433 680,-439 674,-445 668,-445 668,-445 542,-445 542,-445 536,-445 530,-439 530,-433 530,-433 530,-366 530,-366 530,-360 536,-354 542,-354"/>
<text text-anchor="middle" x="605" y="-429.8" font-family="Arial" font-size="14.00" fill="#000000">membus </text>
<text text-anchor="middle" x="605" y="-414.8" font-family="Arial" font-size="14.00" fill="#000000">: SystemXBar</text>
</a>
</g>
</g>
<g id="clust12" class="cluster">
<title>cluster_system_mem_ctrls</title>
<g id="a_clust12"><a xlink:title="IDD0=0.008&#10;IDD02=0.06&#10;IDD2N=0.0008&#10;IDD2N2=0.026&#10;IDD2P0=0.0&#10;IDD2P02=0.0&#10;IDD2P1=0.0008&#10;IDD2P12=0.0018&#10;IDD3N=0.002&#10;IDD3N2=0.034&#10;IDD3P0=0.0&#10;IDD3P02=0.0&#10;IDD3P1=0.0014&#10;IDD3P12=0.011&#10;IDD4R=0.002&#10;IDD4R2=0.23&#10;IDD4W=0.002&#10;IDD4W2=0.19&#10;IDD5=0.028&#10;IDD52=0.15&#10;IDD6=0.0005&#10;IDD62=0.0018&#10;VDD=1.8&#10;VDD2=1.2&#10;activation_limit=4&#10;addr_mapping=RoRaBaCoCh&#10;bank_groups_per_rank=0&#10;banks_per_rank=8&#10;burst_length=8&#10;clk_domain=system.clk_domain&#10;conf_table_reported=true&#10;default_p_state=UNDEFINED&#10;device_bus_width=32&#10;device_rowbuffer_size=4096&#10;device_size=536870912&#10;devices_per_rank=1&#10;dll=false&#10;enable_dram_powerdown=false&#10;eventq_index=0&#10;in_addr_map=true&#10;kvm_map=true&#10;max_accesses_per_row=16&#10;mem_sched_policy=frfcfs&#10;min_writes_per_switch=16&#10;&#10;ull=false&#10;p_state_clk_gate_bins=20&#10;p_state_clk_gate_max=1000000000000&#10;p_state_clk_gate_min=1000&#10;page_policy=open_adaptive&#10;power_model=&#10;qos_masters= &#160;&#160;&#160;&#160;&#160;&#160;&#160;&#160;&#160;&#160;&#160;&#160;&#160;&#160;&#10;qos_policy=Null&#10;qos_priorities=1&#10;qos_priority_escalation=false&#10;qos_q_policy=fifo&#10;qos_syncro_scheduler=false&#10;qos_turnaround_policy=Null&#10;&#13;ange=0:536870911&#10;&#13;anks_per_channel=1&#10;&#13;ead_buffer_size=32&#10;static_backend_latency=10000&#10;static_frontend_latency=10000&#10;tBURST=5000&#10;tCCD_L=0&#10;tCCD_L_WR=0&#10;tCK=1250&#10;tCL=15000&#10;tCS=2500&#10;tRAS=42000&#10;tRCD=18000&#10;tREFI=3900000&#10;tRFC=130000&#10;tRP=18000&#10;tRRD=10000&#10;tRRD_L=0&#10;tRTP=7500&#10;tRTW=2500&#10;tWR=15000&#10;tWTR=7500&#10;tXAW=50000&#10;tXP=7500&#10;tXPDLL=0&#10;tXS=140000&#10;tXSDLL=0&#10;write_buffer_size=64&#10;write_high_thresh_perc=85&#10;write_low_thresh_perc=50">
<path fill="#5e5958" stroke="#000000" d="M36,-163C36,-163 176,-163 176,-163 182,-163 188,-169 188,-175 188,-175 188,-242 188,-242 188,-248 182,-254 176,-254 176,-254 36,-254 36,-254 30,-254 24,-248 24,-242 24,-242 24,-175 24,-175 24,-169 30,-163 36,-163"/>
<text text-anchor="middle" x="106" y="-238.8" font-family="Arial" font-size="14.00" fill="#000000">mem_ctrls </text>
<text text-anchor="middle" x="106" y="-223.8" font-family="Arial" font-size="14.00" fill="#000000">: LPDDR3_1600_1x32</text>
</a>
</g>
</g>
<g id="clust15" class="cluster">
<title>cluster_system_cpu</title>
<g id="a_clust15"><a xlink:title="branchPred=system.cpu.branchPred&#10;checker=Null&#10;clk_domain=system.cpu_clk_domain&#10;cpu_id=0&#10;decodeCycleInput=true&#10;decodeInputBufferSize=3&#10;decodeInputWidth=2&#10;decodeToExecuteForwardDelay=1&#10;default_p_state=UNDEFINED&#10;do_checkpoint_insts=true&#10;do_quiesce=true&#10;do_statistics_insts=true&#10;dtb=system.cpu.dtb&#10;enableIdling=true&#10;eventq_index=0&#10;executeAllowEarlyMemoryIssue=true&#10;executeBranchDelay=1&#10;executeCommitLimit=2&#10;executeCycleInput=true&#10;executeFuncUnits=system.cpu.executeFuncUnits&#10;executeInputBufferSize=7&#10;executeInputWidth=2&#10;executeIssueLimit=2&#10;executeLSQMaxStoreBufferStoresPerCycle=2&#10;executeLSQRequestsQueueSize=1&#10;executeLSQStoreBufferSize=5&#10;executeLSQTransfersQueueSize=2&#10;executeMaxAccessesInMemory=2&#10;executeMemoryCommitLimit=1&#10;executeMemoryIssueLimit=1&#10;executeMemoryWidth=0&#10;executeSetTraceTimeOnCommit=true&#10;executeSetTraceTimeOnIssue=false&#10;fetch1FetchLimit=1&#10;fetch1LineSnapWidth=0&#10;fetch1LineWidth=0&#10;fetch1ToFetch2BackwardDelay=1&#10;fetch1ToFetch2ForwardDelay=1&#10;fetch2CycleInput=true&#10;fetch2InputBufferSize=2&#10;fetch2ToDecodeForwardDelay=1&#10;function_trace=false&#10;function_trace_start=0&#10;interrupts=system.cpu.interrupts&#10;isa=system.cpu.isa&#10;itb=system.cpu.itb&#10;max_insts_all_threads=0&#10;max_insts_any_thread=0&#10;&#10;umThreads=1&#10;p_state_clk_gate_bins=20&#10;p_state_clk_gate_max=1000000000000&#10;p_state_clk_gate_min=1000&#10;power_gating_on_idle=false&#10;power_model=&#10;profile=0&#10;progress_interval=0&#10;pwr_gating_latency=300&#10;simpoint_start_insts=&#10;socket_id=0&#10;switched_out=false&#10;syscallRetryLatency=10000&#10;system=system&#10;threadPolicy=RoundRobin&#10;tracer=system.cpu.tracer&#10;wait_for_remote_gdb=false&#10;workload=system.cpu.workload">
<path fill="#bbc6d9" stroke="#000000" d="M208,-24C208,-24 714,-24 714,-24 720,-24 726,-30 726,-36 726,-36 726,-334 726,-334 726,-340 720,-346 714,-346 714,-346 208,-346 208,-346 202,-346 196,-340 196,-334 196,-334 196,-36 196,-36 196,-30 202,-24 208,-24"/>
<text text-anchor="middle" x="461" y="-330.8" font-family="Arial" font-size="14.00" fill="#000000">cpu </text>
<text text-anchor="middle" x="461" y="-315.8" font-family="Arial" font-size="14.00" fill="#000000">: MinorCPU</text>
</a>
</g>
</g>
<g id="clust17" class="cluster">
<title>cluster_system_cpu_dtb</title>
<g id="a_clust17"><a xlink:title="eventq_index=0&#10;is_stage2=false&#10;size=64&#10;sys=system&#10;walker=system.cpu.dtb.walker">
<path fill="#bab6ae" stroke="#000000" d="M585,-155C585,-155 706,-155 706,-155 712,-155 718,-161 718,-167 718,-167 718,-288 718,-288 718,-294 712,-300 706,-300 706,-300 585,-300 585,-300 579,-300 573,-294 573,-288 573,-288 573,-167 573,-167 573,-161 579,-155 585,-155"/>
<text text-anchor="middle" x="645.5" y="-284.8" font-family="Arial" font-size="14.00" fill="#000000">dtb </text>
<text text-anchor="middle" x="645.5" y="-269.8" font-family="Arial" font-size="14.00" fill="#000000">: ArmDTB</text>
</a>
</g>
</g>
<g id="clust18" class="cluster">
<title>cluster_system_cpu_dtb_walker</title>
<g id="a_clust18"><a xlink:title="clk_domain=system.cpu_clk_domain&#10;default_p_state=UNDEFINED&#10;eventq_index=0&#10;is_stage2=false&#10;&#10;um_squash_per_cycle=2&#10;p_state_clk_gate_bins=20&#10;p_state_clk_gate_max=1000000000000&#10;p_state_clk_gate_min=1000&#10;power_model=&#10;sys=system">
<path fill="#9f9c95" stroke="#000000" d="M593,-163C593,-163 698,-163 698,-163 704,-163 710,-169 710,-175 710,-175 710,-242 710,-242 710,-248 704,-254 698,-254 698,-254 593,-254 593,-254 587,-254 581,-248 581,-242 581,-242 581,-175 581,-175 581,-169 587,-163 593,-163"/>
<text text-anchor="middle" x="645.5" y="-238.8" font-family="Arial" font-size="14.00" fill="#000000">walker </text>
<text text-anchor="middle" x="645.5" y="-223.8" font-family="Arial" font-size="14.00" fill="#000000">: ArmTableWalker</text>
</a>
</g>
</g>
<g id="clust105" class="cluster">
<title>cluster_system_cpu_icache</title>
<g id="a_clust105"><a xlink:title="addr_ranges=0:18446744073709551615&#10;assoc=2&#10;clk_domain=system.cpu_clk_domain&#10;clusivity=mostly_incl&#10;compressor=Null&#10;data_latency=2&#10;default_p_state=UNDEFINED&#10;demand_mshr_reserve=1&#10;eventq_index=0&#10;is_read_only=true&#10;max_miss_count=0&#10;mshrs=4&#10;p_state_clk_gate_bins=20&#10;p_state_clk_gate_max=1000000000000&#10;p_state_clk_gate_min=1000&#10;power_model=&#10;prefetch_on_access=false&#10;prefetcher=Null&#10;&#13;eplacement_policy=system.cpu.icache.replacement_policy&#10;&#13;esponse_latency=2&#10;sequential_access=false&#10;size=32768&#10;system=system&#10;tag_latency=2&#10;tags=system.cpu.icache.tags&#10;tgts_per_mshr=20&#10;warmup_percentage=0&#10;write_allocator=Null&#10;write_buffers=8&#10;writeback_clean=true">
<path fill="#bab6ae" stroke="#000000" d="M275,-32C275,-32 445,-32 445,-32 451,-32 457,-38 457,-44 457,-44 457,-111 457,-111 457,-117 451,-123 445,-123 445,-123 275,-123 275,-123 269,-123 263,-117 263,-111 263,-111 263,-44 263,-44 263,-38 269,-32 275,-32"/>
<text text-anchor="middle" x="360" y="-107.8" font-family="Arial" font-size="14.00" fill="#000000">icache </text>
<text text-anchor="middle" x="360" y="-92.8" font-family="Arial" font-size="14.00" fill="#000000">: L1_ICache</text>
</a>
</g>
</g>
<g id="clust109" class="cluster">
<title>cluster_system_cpu_dcache</title>
<g id="a_clust109"><a xlink:title="addr_ranges=0:18446744073709551615&#10;assoc=2&#10;clk_domain=system.cpu_clk_domain&#10;clusivity=mostly_incl&#10;compressor=Null&#10;data_latency=2&#10;default_p_state=UNDEFINED&#10;demand_mshr_reserve=1&#10;eventq_index=0&#10;is_read_only=false&#10;max_miss_count=0&#10;mshrs=4&#10;p_state_clk_gate_bins=20&#10;p_state_clk_gate_max=1000000000000&#10;p_state_clk_gate_min=1000&#10;power_model=&#10;prefetch_on_access=false&#10;prefetcher=Null&#10;&#13;eplacement_policy=system.cpu.dcache.replacement_policy&#10;&#13;esponse_latency=2&#10;sequential_access=false&#10;size=65536&#10;system=system&#10;tag_latency=2&#10;tags=system.cpu.dcache.tags&#10;tgts_per_mshr=20&#10;warmup_percentage=0&#10;write_allocator=Null&#10;write_buffers=8&#10;writeback_clean=false">
<path fill="#bab6ae" stroke="#000000" d="M506,-32C506,-32 676,-32 676,-32 682,-32 688,-38 688,-44 688,-44 688,-111 688,-111 688,-117 682,-123 676,-123 676,-123 506,-123 506,-123 500,-123 494,-117 494,-111 494,-111 494,-44 494,-44 494,-38 500,-32 506,-32"/>
<text text-anchor="middle" x="591" y="-107.8" font-family="Arial" font-size="14.00" fill="#000000">dcache </text>
<text text-anchor="middle" x="591" y="-92.8" font-family="Arial" font-size="14.00" fill="#000000">: L1_DCache</text>
</a>
</g>
</g>
<g id="clust117" class="cluster">
<title>cluster_system_cpu_itb</title>
<g id="a_clust117"><a xlink:title="eventq_index=0&#10;is_stage2=false&#10;size=64&#10;sys=system&#10;walker=system.cpu.itb.walker">
<path fill="#bab6ae" stroke="#000000" d="M432,-155C432,-155 553,-155 553,-155 559,-155 565,-161 565,-167 565,-167 565,-288 565,-288 565,-294 559,-300 553,-300 553,-300 432,-300 432,-300 426,-300 420,-294 420,-288 420,-288 420,-167 420,-167 420,-161 426,-155 432,-155"/>
<text text-anchor="middle" x="492.5" y="-284.8" font-family="Arial" font-size="14.00" fill="#000000">itb </text>
<text text-anchor="middle" x="492.5" y="-269.8" font-family="Arial" font-size="14.00" fill="#000000">: ArmITB</text>
</a>
</g>
</g>
<g id="clust118" class="cluster">
<title>cluster_system_cpu_itb_walker</title>
<g id="a_clust118"><a xlink:title="clk_domain=system.cpu_clk_domain&#10;default_p_state=UNDEFINED&#10;eventq_index=0&#10;is_stage2=false&#10;&#10;um_squash_per_cycle=2&#10;p_state_clk_gate_bins=20&#10;p_state_clk_gate_max=1000000000000&#10;p_state_clk_gate_min=1000&#10;power_model=&#10;sys=system">
<path fill="#9f9c95" stroke="#000000" d="M440,-163C440,-163 545,-163 545,-163 551,-163 557,-169 557,-175 557,-175 557,-242 557,-242 557,-248 551,-254 545,-254 545,-254 440,-254 440,-254 434,-254 428,-248 428,-242 428,-242 428,-175 428,-175 428,-169 434,-163 440,-163"/>
<text text-anchor="middle" x="492.5" y="-238.8" font-family="Arial" font-size="14.00" fill="#000000">walker </text>
<text text-anchor="middle" x="492.5" y="-223.8" font-family="Arial" font-size="14.00" fill="#000000">: ArmTableWalker</text>
</a>
</g>
</g>
<!-- system_system_port -->
<g id="node1" class="node">
<title>system_system_port</title>
<path fill="#b6b8bc" stroke="#000000" d="M609,-493.5C609,-493.5 681,-493.5 681,-493.5 687,-493.5 693,-499.5 693,-505.5 693,-505.5 693,-517.5 693,-517.5 693,-523.5 687,-529.5 681,-529.5 681,-529.5 609,-529.5 609,-529.5 603,-529.5 597,-523.5 597,-517.5 597,-517.5 597,-505.5 597,-505.5 597,-499.5 603,-493.5 609,-493.5"/>
<text text-anchor="middle" x="645" y="-507.8" font-family="Arial" font-size="14.00" fill="#000000">system_port</text>
</g>
<!-- system_membus_slave -->
<g id="node3" class="node">
<title>system_membus_slave</title>
<path fill="#586070" stroke="#000000" d="M630,-362.5C630,-362.5 660,-362.5 660,-362.5 666,-362.5 672,-368.5 672,-374.5 672,-374.5 672,-386.5 672,-386.5 672,-392.5 666,-398.5 660,-398.5 660,-398.5 630,-398.5 630,-398.5 624,-398.5 618,-392.5 618,-386.5 618,-386.5 618,-374.5 618,-374.5 618,-368.5 624,-362.5 630,-362.5"/>
<text text-anchor="middle" x="645" y="-376.8" font-family="Arial" font-size="14.00" fill="#000000">slave</text>
</g>
<!-- system_system_port&#45;&gt;system_membus_slave -->
<g id="edge1" class="edge">
<title>system_system_port&#45;&gt;system_membus_slave</title>
<path fill="none" stroke="#000000" d="M645,-493.285C645,-471.3856 645,-434.3861 645,-408.7663"/>
<polygon fill="#000000" stroke="#000000" points="648.5001,-408.5603 645,-398.5603 641.5001,-408.5603 648.5001,-408.5603"/>
</g>
<!-- system_membus_master -->
<g id="node2" class="node">
<title>system_membus_master</title>
<path fill="#586070" stroke="#000000" d="M550.5,-362.5C550.5,-362.5 587.5,-362.5 587.5,-362.5 593.5,-362.5 599.5,-368.5 599.5,-374.5 599.5,-374.5 599.5,-386.5 599.5,-386.5 599.5,-392.5 593.5,-398.5 587.5,-398.5 587.5,-398.5 550.5,-398.5 550.5,-398.5 544.5,-398.5 538.5,-392.5 538.5,-386.5 538.5,-386.5 538.5,-374.5 538.5,-374.5 538.5,-368.5 544.5,-362.5 550.5,-362.5"/>
<text text-anchor="middle" x="569" y="-376.8" font-family="Arial" font-size="14.00" fill="#000000">master</text>
</g>
<!-- system_mem_ctrls_port -->
<g id="node4" class="node">
<title>system_mem_ctrls_port</title>
<path fill="#4b4746" stroke="#000000" d="M138,-171.5C138,-171.5 168,-171.5 168,-171.5 174,-171.5 180,-177.5 180,-183.5 180,-183.5 180,-195.5 180,-195.5 180,-201.5 174,-207.5 168,-207.5 168,-207.5 138,-207.5 138,-207.5 132,-207.5 126,-201.5 126,-195.5 126,-195.5 126,-183.5 126,-183.5 126,-177.5 132,-171.5 138,-171.5"/>
<text text-anchor="middle" x="153" y="-185.8" font-family="Arial" font-size="14.00" fill="#000000">port</text>
</g>
<!-- system_membus_master&#45;&gt;system_mem_ctrls_port -->
<g id="edge2" class="edge">
<title>system_membus_master&#45;&gt;system_mem_ctrls_port</title>
<path fill="none" stroke="#000000" d="M538.4853,-379.708C453.4113,-377.2251 218.0986,-368.3832 192,-346 155.113,-314.3642 150.3154,-253.6983 151.0515,-217.9012"/>
<polygon fill="#000000" stroke="#000000" points="154.5585,-217.7717 151.4282,-207.6499 147.5632,-217.5146 154.5585,-217.7717"/>
</g>
<!-- system_cpu_dtb_walker_port -->
<g id="node7" class="node">
<title>system_cpu_dtb_walker_port</title>
<path fill="#7f7c77" stroke="#000000" d="M630,-171.5C630,-171.5 660,-171.5 660,-171.5 666,-171.5 672,-177.5 672,-183.5 672,-183.5 672,-195.5 672,-195.5 672,-201.5 666,-207.5 660,-207.5 660,-207.5 630,-207.5 630,-207.5 624,-207.5 618,-201.5 618,-195.5 618,-195.5 618,-183.5 618,-183.5 618,-177.5 624,-171.5 630,-171.5"/>
<text text-anchor="middle" x="645" y="-185.8" font-family="Arial" font-size="14.00" fill="#000000">port</text>
</g>
<!-- system_membus_slave&#45;&gt;system_cpu_dtb_walker_port -->
<g id="edge6" class="edge">
<title>system_membus_slave&#45;&gt;system_cpu_dtb_walker_port</title>
<path fill="none" stroke="#000000" d="M645,-352.09C645,-312.3133 645,-241.1585 645,-207.7584"/>
<polygon fill="#000000" stroke="#000000" points="641.5001,-352.1861 645,-362.1861 648.5001,-352.1862 641.5001,-352.1861"/>
</g>
<!-- system_cpu_icache_mem_side -->
<g id="node8" class="node">
<title>system_cpu_icache_mem_side</title>
<path fill="#94918b" stroke="#000000" d="M377,-40.5C377,-40.5 437,-40.5 437,-40.5 443,-40.5 449,-46.5 449,-52.5 449,-52.5 449,-64.5 449,-64.5 449,-70.5 443,-76.5 437,-76.5 437,-76.5 377,-76.5 377,-76.5 371,-76.5 365,-70.5 365,-64.5 365,-64.5 365,-52.5 365,-52.5 365,-46.5 371,-40.5 377,-40.5"/>
<text text-anchor="middle" x="407" y="-54.8" font-family="Arial" font-size="14.00" fill="#000000">mem_side</text>
</g>
<!-- system_membus_slave&#45;&gt;system_cpu_icache_mem_side -->
<g id="edge3" class="edge">
<title>system_membus_slave&#45;&gt;system_cpu_icache_mem_side</title>
<path fill="none" stroke="#000000" d="M681.492,-370.9252C694.0161,-365.7021 706.7058,-357.8023 714,-346 725.1572,-327.9473 727.9048,-171.0324 714,-155 681.0544,-117.0134 536.2891,-142.6396 490,-123 464.6325,-112.2371 440.3137,-91.7305 424.6323,-76.7193"/>
<polygon fill="#000000" stroke="#000000" points="680.2063,-367.6689 672.0392,-374.4179 682.6324,-374.2351 680.2063,-367.6689"/>
</g>
<!-- system_cpu_dcache_mem_side -->
<g id="node10" class="node">
<title>system_cpu_dcache_mem_side</title>
<path fill="#94918b" stroke="#000000" d="M608,-40.5C608,-40.5 668,-40.5 668,-40.5 674,-40.5 680,-46.5 680,-52.5 680,-52.5 680,-64.5 680,-64.5 680,-70.5 674,-76.5 668,-76.5 668,-76.5 608,-76.5 608,-76.5 602,-76.5 596,-70.5 596,-64.5 596,-64.5 596,-52.5 596,-52.5 596,-46.5 602,-40.5 608,-40.5"/>
<text text-anchor="middle" x="638" y="-54.8" font-family="Arial" font-size="14.00" fill="#000000">mem_side</text>
</g>
<!-- system_membus_slave&#45;&gt;system_cpu_dcache_mem_side -->
<g id="edge4" class="edge">
<title>system_membus_slave&#45;&gt;system_cpu_dcache_mem_side</title>
<path fill="none" stroke="#000000" d="M681.8713,-375.6474C700.1857,-371.1691 720.7538,-362.5579 732,-346 779.6957,-275.7772 763.9703,-233.6386 732,-155 718.5233,-121.851 687.5794,-93.8563 664.8607,-76.6955"/>
<polygon fill="#000000" stroke="#000000" points="681.0615,-372.2412 672.0019,-377.7344 682.5097,-379.0897 681.0615,-372.2412"/>
</g>
<!-- system_cpu_itb_walker_port -->
<g id="node12" class="node">
<title>system_cpu_itb_walker_port</title>
<path fill="#7f7c77" stroke="#000000" d="M507,-171.5C507,-171.5 537,-171.5 537,-171.5 543,-171.5 549,-177.5 549,-183.5 549,-183.5 549,-195.5 549,-195.5 549,-201.5 543,-207.5 537,-207.5 537,-207.5 507,-207.5 507,-207.5 501,-207.5 495,-201.5 495,-195.5 495,-195.5 495,-183.5 495,-183.5 495,-177.5 501,-171.5 507,-171.5"/>
<text text-anchor="middle" x="522" y="-185.8" font-family="Arial" font-size="14.00" fill="#000000">port</text>
</g>
<!-- system_membus_slave&#45;&gt;system_cpu_itb_walker_port -->
<g id="edge5" class="edge">
<title>system_membus_slave&#45;&gt;system_cpu_itb_walker_port</title>
<path fill="none" stroke="#000000" d="M614.3556,-356.7855C612.5818,-355.7801 610.7907,-354.8425 609,-354 595.7349,-347.7589 587.8367,-355.8732 577,-346 536.4455,-309.0511 525.7915,-240.4314 522.9945,-207.7363"/>
<polygon fill="#000000" stroke="#000000" points="612.6742,-359.8634 622.9966,-362.2509 616.4161,-353.9474 612.6742,-359.8634"/>
</g>
<!-- system_cpu_icache_port -->
<g id="node5" class="node">
<title>system_cpu_icache_port</title>
<path fill="#959ead" stroke="#000000" d="M216,-171.5C216,-171.5 284,-171.5 284,-171.5 290,-171.5 296,-177.5 296,-183.5 296,-183.5 296,-195.5 296,-195.5 296,-201.5 290,-207.5 284,-207.5 284,-207.5 216,-207.5 216,-207.5 210,-207.5 204,-201.5 204,-195.5 204,-195.5 204,-183.5 204,-183.5 204,-177.5 210,-171.5 216,-171.5"/>
<text text-anchor="middle" x="250" y="-185.8" font-family="Arial" font-size="14.00" fill="#000000">icache_port</text>
</g>
<!-- system_cpu_icache_cpu_side -->
<g id="node9" class="node">
<title>system_cpu_icache_cpu_side</title>
<path fill="#94918b" stroke="#000000" d="M283,-40.5C283,-40.5 335,-40.5 335,-40.5 341,-40.5 347,-46.5 347,-52.5 347,-52.5 347,-64.5 347,-64.5 347,-70.5 341,-76.5 335,-76.5 335,-76.5 283,-76.5 283,-76.5 277,-76.5 271,-70.5 271,-64.5 271,-64.5 271,-52.5 271,-52.5 271,-46.5 277,-40.5 283,-40.5"/>
<text text-anchor="middle" x="309" y="-54.8" font-family="Arial" font-size="14.00" fill="#000000">cpu_side</text>
</g>
<!-- system_cpu_icache_port&#45;&gt;system_cpu_icache_cpu_side -->
<g id="edge7" class="edge">
<title>system_cpu_icache_port&#45;&gt;system_cpu_icache_cpu_side</title>
<path fill="none" stroke="#000000" d="M258.2037,-171.285C268.1989,-149.0923 285.1783,-111.3923 296.7302,-85.7431"/>
<polygon fill="#000000" stroke="#000000" points="299.9507,-87.1155 300.866,-76.5603 293.5681,-84.2409 299.9507,-87.1155"/>
</g>
<!-- system_cpu_dcache_port -->
<g id="node6" class="node">
<title>system_cpu_dcache_port</title>
<path fill="#959ead" stroke="#000000" d="M326,-171.5C326,-171.5 400,-171.5 400,-171.5 406,-171.5 412,-177.5 412,-183.5 412,-183.5 412,-195.5 412,-195.5 412,-201.5 406,-207.5 400,-207.5 400,-207.5 326,-207.5 326,-207.5 320,-207.5 314,-201.5 314,-195.5 314,-195.5 314,-183.5 314,-183.5 314,-177.5 320,-171.5 326,-171.5"/>
<text text-anchor="middle" x="363" y="-185.8" font-family="Arial" font-size="14.00" fill="#000000">dcache_port</text>
</g>
<!-- system_cpu_dcache_cpu_side -->
<g id="node11" class="node">
<title>system_cpu_dcache_cpu_side</title>
<path fill="#94918b" stroke="#000000" d="M514,-40.5C514,-40.5 566,-40.5 566,-40.5 572,-40.5 578,-46.5 578,-52.5 578,-52.5 578,-64.5 578,-64.5 578,-70.5 572,-76.5 566,-76.5 566,-76.5 514,-76.5 514,-76.5 508,-76.5 502,-70.5 502,-64.5 502,-64.5 502,-52.5 502,-52.5 502,-46.5 508,-40.5 514,-40.5"/>
<text text-anchor="middle" x="540" y="-54.8" font-family="Arial" font-size="14.00" fill="#000000">cpu_side</text>
</g>
<!-- system_cpu_dcache_port&#45;&gt;system_cpu_dcache_cpu_side -->
<g id="edge8" class="edge">
<title>system_cpu_dcache_port&#45;&gt;system_cpu_dcache_cpu_side</title>
<path fill="none" stroke="#000000" d="M391.339,-171.2273C411.1612,-158.2157 438.0837,-140.0781 461,-123 478.01,-110.3235 496.4022,-95.3845 511.157,-83.0775"/>
<polygon fill="#000000" stroke="#000000" points="513.5359,-85.6504 518.948,-76.5422 509.0372,-80.2874 513.5359,-85.6504"/>
</g>
</g>
</svg>
